# xmcd
#
# Track frame offsets:
#  150
#  18145
#  31185
#  52882
#  72502
#  93340
#  105215
#  118397
#  140150
#
# Disc length: 2074 seconds
#
# Revision: 0
# Processed by: cddbd v1.4PL0 Copyright (c) Steve Scherf et al.
# Submitted via: AltoMP3_Maker 3.0
#
DISCID=72081809
DTITLE=Crosby Tyler - Black Canary
DYEAR=1900
DGENRE=
TTITLE0=Be Still Woman
TTITLE1=Love Is A Lonely Game
TTITLE2=Black Canary
TTITLE3=Roll Along
TTITLE4=Rooster Dance
TTITLE5=Rocking Her World
TTITLE6=Lonely Night In Harlem
TTITLE7=Beef Bones In My Wagon
TTITLE8=Satan's In My Sleep
EXTD=
EXTT0=
EXTT1=
EXTT2=
EXTT3=
EXTT4=
EXTT5=
EXTT6=
EXTT7=
EXTT8=
PLAYORDER=
